<svg width="140" height="80" viewBox="0 0 140 80" fill="none" xmlns="http://www.w3.org/2000/svg">

<path d="M86.5995 51.5586C86.5995 53.0062 86.0753 54.2542 85.027 55.3025C84.0287 56.3008 82.8057 56.8 81.3581 56.8H60.3924C58.9448 56.8 57.6968 56.3008 56.6486 55.3025C55.6502 54.2542 55.151 53.0062 55.151 51.5586V25.3516C55.151 23.9039 55.6502 22.681 56.6486 21.6826C57.6968 20.6343 58.9448 20.1102 60.3924 20.1102H81.3581C82.8057 20.1102 84.0287 20.6343 85.027 21.6826C86.0753 22.681 86.5995 23.9039 86.5995 25.3516V30.593H80.6093V25.3516H61.1412V51.5586H80.6093V46.3172H86.5995V51.5586Z" fill="#30075B"/>
<path d="M48.5739 60H42.5837V52.3074L38.091 56.8H22.3668C20.9192 56.8 19.6712 56.3008 18.623 55.3025C17.6246 54.2542 17.1254 53.0062 17.1254 51.5586V20.1102H23.1156V51.5586H42.5837V20.1102H48.5739V60Z" fill="#30075B"/>
<path d="M113.389 45.4899H105.16L100.66 40.9656H117.133V25.2414H97.665V56.6899H91.6748V30.4079L96.9162 25.2414H91.6748V20H117.882C119.28 20 120.503 20.5241 121.551 21.5724C122.599 22.6207 123.123 23.8437 123.123 25.2414V39.4681C123.123 43.4615 121.376 45.4583 117.882 45.4583L113.389 45.4899Z" fill="#30075B"/>
</svg>
