<?xml version="1.0" encoding="UTF-8"?> <svg xmlns="http://www.w3.org/2000/svg" width="1584" height="364" viewBox="0 0 1584 364" fill="none"><mask id="mask0_472_143" style="mask-type:luminance" maskUnits="userSpaceOnUse" x="0" y="0" width="1584" height="364"><path d="M1583.43 0H0V363.333H1583.43V0Z" fill="white"></path></mask><g mask="url(#mask0_472_143)"><path d="M542.03 245.219H461.701V227.497L517.952 137.536H479.713V164.89H461.701V119.524H540.393V137.536L485.782 227.304H524.406V199.661H542.03V245.219Z" fill="#F1F7FB"></path><path d="M654.241 210.738C654.241 222.167 650.355 230.772 642.586 236.551C634.816 242.33 623.771 245.219 609.454 245.219H569.386V119.524H607.237C612.503 119.524 617.672 119.974 622.746 120.873C627.819 121.708 632.344 123.313 636.327 125.689C640.372 128.065 643.645 131.404 646.151 135.706C648.655 139.944 649.906 145.466 649.906 152.273C649.906 158.63 648.27 164.441 644.994 169.706C641.783 174.971 636.904 178.76 630.353 181.072C638.382 183.576 644.353 187.076 648.27 191.57C652.251 196.065 654.241 202.454 654.241 210.738ZM630.161 154.873C630.161 151.213 629.456 148.227 628.042 145.916C626.693 143.604 624.928 141.838 622.746 140.618C620.563 139.334 618.121 138.499 615.425 138.114C612.729 137.729 610 137.536 607.237 137.536H589.323V172.211H607.237C610 172.211 612.729 172.018 615.425 171.632C618.121 171.247 620.563 170.444 622.746 169.225C624.928 167.94 626.693 166.142 628.042 163.831C629.456 161.519 630.161 158.533 630.161 154.873ZM634.496 208.715C634.496 202.422 632.28 197.767 627.85 194.749C623.484 191.731 617.351 190.222 609.454 190.222H589.323V227.304H609.454C617.351 227.304 623.484 225.795 627.85 222.777C632.28 219.695 634.496 215.008 634.496 208.715Z" fill="#F1F7FB"></path><path d="M669.17 182.326C669.17 173.914 670.07 165.791 671.868 157.957C673.666 150.123 676.46 143.22 680.248 137.249C684.037 131.277 688.979 126.493 695.079 122.897C701.245 119.237 708.661 117.407 717.33 117.407C725.997 117.407 733.382 119.237 739.482 122.897C745.648 126.493 750.655 131.277 754.508 137.249C758.36 143.22 761.154 150.123 762.888 157.957C764.621 165.791 765.489 173.914 765.489 182.326C765.489 190.737 764.621 198.86 762.888 206.694C761.154 214.464 758.394 221.398 754.605 227.499C750.817 233.535 745.841 238.383 739.674 242.043C733.575 245.639 726.126 247.436 717.33 247.436C708.532 247.436 701.053 245.639 694.886 242.043C688.787 238.383 683.811 233.535 679.958 227.499C676.17 221.398 673.44 214.464 671.771 206.694C670.037 198.86 669.17 190.737 669.17 182.326ZM689.107 182.326C689.107 187.976 689.526 193.627 690.359 199.278C691.26 204.928 692.737 210.001 694.792 214.496C696.91 218.926 699.768 222.522 703.364 225.283C707.024 228.044 711.68 229.425 717.33 229.425C722.981 229.425 727.603 228.044 731.199 225.283C734.86 222.522 737.717 218.926 739.772 214.496C741.89 210.001 743.368 204.928 744.201 199.278C745.102 193.627 745.551 187.976 745.551 182.326C745.551 176.675 745.102 171.056 744.201 165.47C743.368 159.884 741.89 154.843 739.772 150.348C737.717 145.853 734.826 142.225 731.102 139.464C727.442 136.703 722.853 135.322 717.33 135.322C708.148 135.322 701.148 139.464 696.333 147.747C691.516 156.031 689.107 167.557 689.107 182.326Z" fill="#F1F7FB"></path><path d="M871.534 245.219H846.299L813.744 194.363H804.69V245.219H784.752V119.524H826.169C839.974 119.524 850.698 122.703 858.34 129.06C865.981 135.353 869.8 144.696 869.8 157.088C869.8 162.611 868.933 167.491 867.202 171.729C865.532 175.903 863.123 179.498 859.976 182.516C856.896 185.534 853.266 187.942 849.093 189.74C844.984 191.474 840.52 192.662 835.703 193.304L871.534 245.219ZM849.862 156.799C849.862 150.378 847.743 145.562 843.506 142.352C839.333 139.141 833.554 137.536 826.169 137.536H804.69V176.352H826.169C833.554 176.352 839.333 174.747 843.506 171.536C847.743 168.326 849.862 163.413 849.862 156.799Z" fill="#F1F7FB"></path><path d="M976.907 245.219H953.596L920.656 186.658L912.374 196.482V245.219H892.436V119.524H912.374V168.839L951.477 119.524H977.099L933.273 171.632L976.907 245.219Z" fill="#F1F7FB"></path><path d="M1070.14 245.219L1061.09 215.264H1019.48L1010.62 245.219H989.716L1028.92 119.524H1051.84L1091.04 245.219H1070.14ZM1024.77 197.638H1055.79L1040.38 145.819L1024.77 197.638Z" fill="#F1F7FB"></path><path d="M1237.8 245.219H1157.47V119.524H1177.41V227.304H1237.8V245.219Z" fill="#F1F7FB"></path><path d="M1335.18 245.219L1326.12 215.264H1284.51L1275.65 245.219H1254.75L1293.95 119.524H1316.88L1356.08 245.219H1335.18ZM1289.81 197.638H1320.83L1305.42 145.819L1289.81 197.638Z" fill="#F1F7FB"></path><path d="M1457.69 210.738C1457.69 222.167 1453.81 230.772 1446.04 236.551C1438.27 242.33 1427.23 245.219 1412.91 245.219H1372.84V119.524H1410.69C1415.96 119.524 1421.12 119.974 1426.2 120.873C1431.27 121.708 1435.8 123.313 1439.78 125.689C1443.82 128.065 1447.1 131.404 1449.6 135.706C1452.11 139.944 1453.36 145.466 1453.36 152.273C1453.36 158.63 1451.72 164.441 1448.45 169.706C1445.24 174.971 1440.36 178.76 1433.81 181.072C1441.83 183.576 1447.8 187.076 1451.72 191.57C1455.7 196.065 1457.69 202.454 1457.69 210.738ZM1433.61 154.873C1433.61 151.213 1432.91 148.227 1431.49 145.916C1430.15 143.604 1428.38 141.838 1426.2 140.618C1424.01 139.334 1421.58 138.499 1418.88 138.114C1416.18 137.729 1413.45 137.536 1410.69 137.536H1392.78V172.21H1410.69C1413.45 172.21 1416.18 172.018 1418.88 171.632C1421.58 171.247 1424.01 170.444 1426.2 169.225C1428.38 167.94 1430.15 166.142 1431.49 163.831C1432.91 161.519 1433.61 158.533 1433.61 154.873ZM1437.95 208.715C1437.95 202.422 1435.73 197.767 1431.3 194.749C1426.94 191.731 1420.8 190.222 1412.91 190.222H1392.78V227.304H1412.91C1420.8 227.304 1426.94 225.795 1431.3 222.777C1435.73 219.695 1437.95 215.008 1437.95 208.715Z" fill="#F1F7FB"></path><path d="M1562.39 210.739C1562.39 216.519 1561.4 221.688 1559.41 226.247C1557.48 230.741 1554.81 234.562 1551.41 237.708C1548.07 240.855 1544.06 243.263 1539.37 244.932C1534.75 246.602 1529.8 247.436 1524.54 247.436C1518.63 247.436 1513.3 246.377 1508.55 244.258C1503.8 242.139 1499.72 238.639 1496.32 233.759V245.221H1478.4V204.19H1496.32C1496.32 208.299 1497.02 211.927 1498.43 215.074C1499.91 218.22 1501.84 220.885 1504.21 223.068C1506.59 225.187 1509.35 226.824 1512.5 227.98C1515.64 229.072 1518.98 229.618 1522.51 229.618C1528.49 229.618 1533.3 228.237 1536.96 225.476C1540.62 222.715 1542.45 218.316 1542.45 212.28C1542.45 209.134 1541.87 206.437 1540.72 204.19C1539.63 201.942 1538.02 199.952 1535.9 198.218C1533.85 196.42 1531.31 194.879 1528.29 193.595C1525.27 192.246 1521.84 190.833 1517.99 189.357C1513.43 187.816 1508.87 186.082 1504.31 184.155C1499.75 182.229 1495.67 179.853 1492.08 177.028C1488.48 174.203 1485.56 170.735 1483.31 166.626C1481.06 162.452 1479.94 157.219 1479.94 150.926C1479.94 145.404 1480.94 140.588 1482.93 136.478C1484.98 132.305 1487.68 128.805 1491.02 125.979C1494.42 123.154 1498.34 121.035 1502.77 119.623C1507.26 118.146 1512.02 117.407 1517.02 117.407C1522.8 117.407 1527.75 118.627 1531.86 121.067C1536.03 123.507 1539.24 126.75 1541.49 130.796V119.526H1559.41V158.631H1541.49C1541.49 151.247 1539.53 145.5 1535.61 141.39C1531.76 137.217 1526.56 135.13 1520.01 135.13C1514.23 135.13 1509.42 136.478 1505.56 139.175C1501.77 141.872 1499.88 145.661 1499.88 150.54C1499.88 153.045 1500.36 155.196 1501.33 156.994C1502.35 158.728 1503.8 160.333 1505.66 161.81C1507.58 163.222 1509.99 164.571 1512.88 165.855C1515.77 167.075 1519.11 168.424 1522.9 169.9C1527.65 171.57 1532.37 173.464 1537.06 175.583C1541.74 177.702 1545.95 180.303 1549.68 183.385C1553.4 186.467 1556.45 190.224 1558.83 194.654C1561.2 199.021 1562.39 204.382 1562.39 210.739Z" fill="#F1F7FB"></path><path d="M275.424 14.7305C288.675 14.7262 300.919 21.7958 307.54 33.2732L382.413 163.05L211.17 163.106L125.598 14.7792L275.424 14.7305Z" fill="#74E8E0"></path><path d="M211.17 200.172L382.398 200.116L307.425 329.972C300.807 341.438 288.577 348.502 275.339 348.505L125.502 348.555L211.17 200.172Z" fill="#12B9AF"></path><path d="M93.505 33.3223L179.071 181.639L93.4026 330.022L18.5263 200.234C11.911 188.767 11.9134 174.643 18.5324 163.179L93.505 33.3223Z" fill="#A2E8E3"></path></g></svg> 